<svg id="Layer_1" data-name="Layer 1" xmlns="http://www.w3.org/2000/svg" viewBox="0 0 14.53 14.49"><defs><style>.cls-1{fill:#1351ea;}</style></defs><path class="cls-1" d="M8.21,14.49h-2a.86.86,0,0,1-.53-.19.7.7,0,0,1-.28-.53l-.2-1.29L5,12.37l-1,.75a.84.84,0,0,1-1.09-.06,10.92,10.92,0,0,1-1.5-1.54A.84.84,0,0,1,1.23,11a.82.82,0,0,1,.17-.5q.12-.18.45-.6l.28-.36L2,9.2.68,9A.74.74,0,0,1,.17,8.7.82.82,0,0,1,0,8.2V6.25a.82.82,0,0,1,.17-.5.76.76,0,0,1,.47-.31L2,5.23c0-.1.09-.2.14-.31-.2-.27-.45-.59-.75-.94a.87.87,0,0,1-.2-.53A.93.93,0,0,1,1.35,3a11,11,0,0,1,.93-1c.65-.65.93-.77,1.18-.77A.86.86,0,0,1,4,1.38l1,.75L5.27,2A13,13,0,0,1,5.5.62.8.8,0,0,1,6.3,0h2a.8.8,0,0,1,.53.19.77.77,0,0,1,.29.54L9.26,2l.29.11,1-.75a.86.86,0,0,1,1,0A11.58,11.58,0,0,1,13.14,3a.71.71,0,0,1,.16.48.79.79,0,0,1-.17.49c-.09.13-.24.33-.46.61l-.28.36.15.36,1.31.2a.83.83,0,0,1,.68.81v2a.82.82,0,0,1-.17.5.75.75,0,0,1-.5.31l-1.34.21a.78.78,0,0,1-.13.3c.19.25.44.57.75.94a.82.82,0,0,1,.2.54.74.74,0,0,1-.21.53,8.48,8.48,0,0,1-.89,1c-.65.64-.92.76-1.18.76a1,1,0,0,1-.5-.15l-1-.79-.28.12a13,13,0,0,1-.23,1.39A.78.78,0,0,1,8.21,14.49Zm-1.77-.85Zm0-.15H8.1c0-.23.12-.66.22-1.44v-.32l.31-.1a4.55,4.55,0,0,0,.72-.3l.28-.15L11,12.26a5.12,5.12,0,0,0,.49-.44c.34-.34.59-.6.75-.79-.4-.49-.69-.87-.89-1.15l-.18-.25.15-.27a5.92,5.92,0,0,0,.31-.73l.1-.28,1.77-.27V6.43l-1.75-.26-.09-.3a3.8,3.8,0,0,0-.33-.78l-.14-.28.18-.25c.11-.15.27-.36.49-.63a5.1,5.1,0,0,0,.36-.48A12.56,12.56,0,0,0,11,2.23l-1.39,1-.26-.14a4.51,4.51,0,0,0-.72-.29l-.28-.12L8.11,1H6.38c0,.24-.12.66-.22,1.44v.32l-.31.1a4.55,4.55,0,0,0-.72.3l-.28.15-1.4-1A4.91,4.91,0,0,0,3,2.66a9.22,9.22,0,0,0-.74.79c.36.44.66.82.88,1.14l.18.25-.15.27a3.23,3.23,0,0,0-.3.72l-.09.3L1,6.4V8l1.75.26.09.31a3.06,3.06,0,0,0,.32.77l.15.28-.18.25-.49.64L2.26,11a11.61,11.61,0,0,0,1.21,1.22L4.85,11.2l.28.14a4.51,4.51,0,0,0,.72.29l.3.1ZM3.38,12.33Zm.2,0Zm9.91-6Zm-1.2-2.73ZM11.16,2.11h0ZM8,.83ZM7.24,10a2.77,2.77,0,1,1,1.94-.81l-.35-.35.35.35A2.64,2.64,0,0,1,7.24,10Zm0-4.5A1.68,1.68,0,0,0,6,6,1.76,1.76,0,0,0,6,8.48a1.74,1.74,0,0,0,2.45,0l0,0A1.75,1.75,0,0,0,8.5,6a1.78,1.78,0,0,0-1.26-.53Z"/></svg>