<svg id="Layer_1" data-name="Layer 1" xmlns="http://www.w3.org/2000/svg" viewBox="0 0 15.71 15.64"><defs><style>.cls-1{fill:#1351ea;}</style></defs><path class="cls-1" d="M12.93,15.64a1.11,1.11,0,0,1-.84-.4L6.28,9.43a4.61,4.61,0,0,1-2.39.12,4.91,4.91,0,0,1-3.81-4A4.48,4.48,0,0,1,.5,2.65l.31-.6,3.07,3,1.29-1.3-3-3,.64-.3A4.7,4.7,0,0,1,5.67.08,4.9,4.9,0,0,1,8.31,1.41,4.84,4.84,0,0,1,9.66,3.87a4.44,4.44,0,0,1-.12,2.37l5.83,5.82a1.13,1.13,0,0,1,0,1.6.69.69,0,0,1-.13.11l-1.5,1.5A1.17,1.17,0,0,1,12.93,15.64ZM6.53,8.27l6.4,6.37.13-.08,1.63-1.66h0v-.09l-6.3-6.3.13-.31A3.4,3.4,0,0,0,8.7,4.11a3.87,3.87,0,0,0-3.18-3A4.09,4.09,0,0,0,4,1.11L6.63,3.78,3.92,6.49,1.17,3.79A3.51,3.51,0,0,0,1.1,5.4,3.92,3.92,0,0,0,2.19,7.5a3.88,3.88,0,0,0,1.9,1.09,3.52,3.52,0,0,0,2.13-.18Z"/></svg>