<svg id="Layer_1" data-name="Layer 1" xmlns="http://www.w3.org/2000/svg" viewBox="0 0 16.7 13.47"><path d="M15,3.58V4a9.77,9.77,0,0,1-.64,3.46,10.47,10.47,0,0,1-1.84,3.1A9,9,0,0,1,9.4,12.86a9.93,9.93,0,0,1-4.16.88A9.64,9.64,0,0,1,0,12.19H.82a6.91,6.91,0,0,0,4.26-1.44,3.61,3.61,0,0,1-2-.7,3.33,3.33,0,0,1-1.2-1.62,3.18,3.18,0,0,0,.62.07,2.74,2.74,0,0,0,.9-.15A3.4,3.4,0,0,1,1.45,7.19,3.27,3.27,0,0,1,.67,5h0a3.83,3.83,0,0,0,1.56.43A3.44,3.44,0,0,1,1.17.9,10.18,10.18,0,0,0,4.28,3.4,9.78,9.78,0,0,0,8.21,4.45a3.44,3.44,0,0,1-.08-.78,3.26,3.26,0,0,1,1-2.4,3.43,3.43,0,0,1,4.86,0l0,.05A7.37,7.37,0,0,0,16.22.51,3.28,3.28,0,0,1,14.7,2.38a7.26,7.26,0,0,0,2-.51A7.43,7.43,0,0,1,15,3.58Z" transform="translate(0 -0.26)"/></svg>