<svg id="Layer_1" data-name="Layer 1" xmlns="http://www.w3.org/2000/svg" viewBox="0 0 14.79 13"><defs><style>.cls-1{fill:#1351ea;}</style></defs><path class="cls-1" d="M12.93,13H3.64a1.79,1.79,0,0,1-1.31-.54,1.77,1.77,0,0,1-.54-1.3V8.5h1v2.66a.85.85,0,0,0,.85.84H13a.8.8,0,0,0,.6-.25.77.77,0,0,0,.24-.59V1.84a.81.81,0,0,0-.24-.6A.85.85,0,0,0,13,1H3.64a.85.85,0,0,0-.85.83h0V4.5h-1V1.84A1.77,1.77,0,0,1,2.33.54,1.79,1.79,0,0,1,3.64,0H13a1.83,1.83,0,0,1,1.84,1.82v9.34A1.83,1.83,0,0,1,13,13h0Z"/><rect class="cls-1" y="7.5" width="11" height="1"/><polygon class="cls-1" points="8.35 11.18 7.64 10.47 10.12 8 7.64 5.52 8.35 4.82 11.53 8 8.35 11.18"/></svg>