<svg id="Layer_1" data-name="Layer 1" xmlns="http://www.w3.org/2000/svg" viewBox="0 0 15.11 15.03"><defs><style>.cls-1{fill:#1351ea;}</style></defs><path class="cls-1" d="M13.75,7H9.45A1.36,1.36,0,0,1,8.09,5.67h0V1.37A1.36,1.36,0,0,1,9.45,0h4.3a1.36,1.36,0,0,1,1.36,1.36h0v4.3A1.36,1.36,0,0,1,13.75,7ZM9.45,1a.36.36,0,0,0-.36.36h0v4.3a.36.36,0,0,0,.36.36h4.3a.36.36,0,0,0,.36-.36h0V1.39A.36.36,0,0,0,13.75,1H9.45Z"/><path class="cls-1" d="M13.75,15H9.45a1.36,1.36,0,0,1-1.36-1.36h0V9.37A1.36,1.36,0,0,1,9.45,8h4.3a1.36,1.36,0,0,1,1.36,1.36h0v4.3A1.36,1.36,0,0,1,13.75,15ZM9.45,9a.36.36,0,0,0-.36.36h0v4.3a.36.36,0,0,0,.36.36h4.3a.36.36,0,0,0,.36-.36h0V9.39A.36.36,0,0,0,13.75,9H9.45Z"/><path class="cls-1" d="M5.67,15H1.37A1.36,1.36,0,0,1,0,13.65V9.34A1.36,1.36,0,0,1,1.37,8h4.3A1.36,1.36,0,0,1,7,9.34H7v4.31A1.36,1.36,0,0,1,5.67,15ZM1.37,9A.36.36,0,0,0,1,9.36H1v4.31a.37.37,0,0,0,.36.35h4.3A.37.37,0,0,0,6,13.67V9.34A.36.36,0,0,0,5.67,9h0Z"/><path class="cls-1" d="M5.66,7H1.36A1.36,1.36,0,0,1,0,5.66H0V1.36A1.36,1.36,0,0,1,1.36,0h4.3A1.36,1.36,0,0,1,7,1.36H7v4.3A1.36,1.36,0,0,1,5.66,7ZM1.36,1A.36.36,0,0,0,1,1.38H1v4.3A.36.36,0,0,0,1.36,6h4.3A.36.36,0,0,0,6,5.68H6V1.38A.36.36,0,0,0,5.66,1H1.36Z"/></svg>