<svg id="Layer_1" data-name="Layer 1" xmlns="http://www.w3.org/2000/svg" viewBox="0 0 15.87 17.67"><defs><style>.cls-1{fill:#8e0626;}</style></defs><path class="cls-1" d="M11.83,17.67H4A2.38,2.38,0,0,1,1.6,15.3V3h1V15.3A1.39,1.39,0,0,0,4,16.67h7.86A1.37,1.37,0,0,0,13.2,15.3V3h1V15.3A2.37,2.37,0,0,1,11.83,17.67Z"/><rect class="cls-1" y="2.41" width="15.87" height="1"/><path class="cls-1" d="M10.4,2.91h-1V1.84A.85.85,0,0,0,8.55,1H7.15a.86.86,0,0,0-.84.84V2.91h-1V1.84A1.86,1.86,0,0,1,7.15,0h1.4A1.85,1.85,0,0,1,10.4,1.84Z"/></svg>