<svg id="Layer_1" data-name="Layer 1" xmlns="http://www.w3.org/2000/svg" viewBox="0 0 19.28 17.09"><defs><style>.cls-1{fill:#1351ea;}</style></defs><path class="cls-1" d="M6.63,17.09H5.09a.78.78,0,0,1-.48-.17.73.73,0,0,1-.27-.5l-.14-1H4.09L3.35,16a.79.79,0,0,1-1-.06,8.72,8.72,0,0,1-1.2-1.23A.8.8,0,0,1,1,14.29a.74.74,0,0,1,.15-.45c.07-.1.19-.26.37-.48l.18-.23L1.63,13l-1-.14a.72.72,0,0,1-.47-.28A.72.72,0,0,1,0,12.06V10.48A.74.74,0,0,1,.15,10a.73.73,0,0,1,.44-.29l1-.15a.78.78,0,0,1,0-.14c-.15-.2-.33-.43-.54-.68a.8.8,0,0,1-.18-.49.77.77,0,0,1,.14-.44A10.32,10.32,0,0,1,1.86,7c.48-.48.74-.64,1-.64a.8.8,0,0,1,.49.18l.71.55.11-.05a8.37,8.37,0,0,1,.18-1,.72.72,0,0,1,.73-.57H6.62a.79.79,0,0,1,.49.17.77.77,0,0,1,.26.5l.14.94.11.05.75-.57a.81.81,0,0,1,1,0A9.83,9.83,0,0,1,10.6,7.85a.77.77,0,0,1,.14.44.74.74,0,0,1-.15.45c-.07.1-.19.26-.37.48L10,9.46s.05.11.07.17l1,.15a.76.76,0,0,1,.47.27.81.81,0,0,1,.16.47V12a.74.74,0,0,1-.15.45.67.67,0,0,1-.46.29l-1,.15a.69.69,0,0,0-.05.13q.21.29.54.69a.8.8,0,0,1,.18.49.72.72,0,0,1-.18.49,6.57,6.57,0,0,1-.71.78c-.76.75-1.06.75-1.46.49l-.74-.58H7.6a8.37,8.37,0,0,1-.18,1,.73.73,0,0,1-.77.69Zm-1.3-.8Zm0-.18H6.43c0-.2.09-.52.15-1v-.32l.31-.1a3.76,3.76,0,0,0,.55-.23l.28-.15,1.08.84.31-.29a6.76,6.76,0,0,0,.52-.55c-.28-.35-.5-.63-.64-.84l-.13-.31L9,12.89a3,3,0,0,0,.24-.56l.1-.29,1.35-.2V10.72l-1.35-.2-.09-.3A4,4,0,0,0,9,9.62l-.13-.27L9,9.1l.39-.51a2.34,2.34,0,0,0,.24-.31c-.15-.17-.39-.42-.82-.82l-1.09.81-.27-.14a3.76,3.76,0,0,0-.55-.23l-.3-.09-.2-1.36H5.29c0,.19-.09.51-.15,1v.32l-.31.1a2.91,2.91,0,0,0-.55.23L4,8.24,2.86,7.45l-.31.28c-.26.26-.42.43-.52.55.26.32.48.6.64.84l.18.25-.14.27a3,3,0,0,0-.24.55l-.09.3L1,10.69v1.12l1.36.2.09.31a3.32,3.32,0,0,0,.24.59l.15.27-.18.26-.39.5-.24.31a10.83,10.83,0,0,0,.83.83L4,14.26l.28.14a3.76,3.76,0,0,0,.55.23l.3.1Zm-2.55-.9Zm.28,0Zm-1-.8Zm7.8-.26Zm0-5.7ZM9.05,7.33h0Zm-2.65-1Zm-.54,7.21a2.28,2.28,0,1,1,1.61-.67h0A2.17,2.17,0,0,1,5.86,13.54Zm0-3.52a1.28,1.28,0,0,0-1.27,1.29A1.3,1.3,0,0,0,5,12.2a1.27,1.27,0,0,0,1.8,0h0A1.28,1.28,0,0,0,5.86,10Z"/><path class="cls-1" d="M15.28,9.09H14.11a.7.7,0,0,1-.44-.16.68.68,0,0,1-.25-.46l-.09-.6-.47.36a.73.73,0,0,1-.92-.06A6.81,6.81,0,0,1,11,7.23a.7.7,0,0,1-.13-.42A.68.68,0,0,1,11,6.4c0-.07.14-.2.28-.37l.09-.12h0l-.67-.1a.65.65,0,0,1-.44-.26.71.71,0,0,1-.14-.42V4a.71.71,0,0,1,.14-.42.63.63,0,0,1,.41-.26l.68-.1c-.1-.14-.22-.29-.35-.45a.66.66,0,0,1-.17-.44A.68.68,0,0,1,11,1.87a4.41,4.41,0,0,1,.58-.64c.39-.39.6-.52.84-.52a.75.75,0,0,1,.45.16l.44.35c0-.32.09-.55.13-.7A.67.67,0,0,1,14.11,0h1.17a.7.7,0,0,1,.44.16A.69.69,0,0,1,16,.63l.09.59.47-.36a.75.75,0,0,1,.88,0,7.87,7.87,0,0,1,1,1,.61.61,0,0,1,.13.41.68.68,0,0,1-.14.41c0,.08-.15.2-.28.37L18,3.17h0l.67.11a.64.64,0,0,1,.43.25.66.66,0,0,1,.15.43V5.13a.7.7,0,0,1-.57.68l-.66.1c.11.15.23.3.35.44a.69.69,0,0,1,0,.91,4.29,4.29,0,0,1-.54.59c-.63.61-.9.62-1.26.39l-.48-.38c0,.24-.07.47-.12.7A.68.68,0,0,1,15.28,9.09Zm-.87-.76Zm.57,0Zm-.61-.22H15c0-.15.06-.37.09-.69V7.1l.31-.1a2,2,0,0,0,.4-.16l.28-.15.8.62.16-.14.32-.34A6.07,6.07,0,0,1,17,6.26L16.86,6,17,5.75a2.09,2.09,0,0,0,.17-.41l.1-.28,1-.15V4.26l-1-.15-.1-.3A1.78,1.78,0,0,0,17,3.38l-.14-.3L17,2.82c.07-.09.16-.22.3-.38l.12-.16c-.1-.11-.25-.26-.48-.48l-.8.61-.32-.14-.4-.17L15.17,2,15,1h-.65c0,.15-.06.37-.1.69V2l-.3.1a2.78,2.78,0,0,0-.4.16l-.29.15-.8-.62L12.32,2,12,2.3c.17.21.31.4.43.56l.18.26-.15.27a1.92,1.92,0,0,0-.17.39l-.09.3-1,.15v.64l1,.15.09.31a1.94,1.94,0,0,0,.17.42l.15.28-.18.25-.3.39L12,6.83c.1.11.25.26.48.47l.8-.6.28.14A2.83,2.83,0,0,0,14,7l.29.09Zm-2.11-.66Zm.36,0Zm5-.77Zm0-4.19Zm-.37-.84-.08.06a.31.31,0,0,0,.05-.1ZM15,.81Zm-.28,5.65a1.85,1.85,0,0,1-1.83-1.87,1.81,1.81,0,0,1,.53-1.28A1.84,1.84,0,1,1,16,5.93,1.83,1.83,0,0,1,14.72,6.46Zm0-2.69a.8.8,0,0,0-.6.25.77.77,0,0,0-.24.59.84.84,0,0,0,1.43.61h0a.85.85,0,0,0-.6-1.44Z"/></svg>