<svg id="Layer_1" data-name="Layer 1" xmlns="http://www.w3.org/2000/svg" viewBox="0 0 13.67 17.72"><defs><style>.cls-1{fill:#1351ea;}</style></defs><path class="cls-1" d="M10.87,17.72H2.8A2.8,2.8,0,0,1,0,14.92V9.28a2.8,2.8,0,0,1,2.8-2.8h8.07a2.82,2.82,0,0,1,2.8,2.8v5.64A2.81,2.81,0,0,1,10.87,17.72ZM2.8,7.48A1.81,1.81,0,0,0,1,9.28v5.64a1.8,1.8,0,0,0,1.8,1.8h8.07a1.81,1.81,0,0,0,1.8-1.8V9.28a1.82,1.82,0,0,0-1.8-1.8Z"/><path class="cls-1" d="M12.21,7.14h-1V4.91a4.14,4.14,0,0,0-8.27,0V7h-1V4.91a5.14,5.14,0,0,1,10.27,0Z"/></svg>