<svg id="Layer_1" data-name="Layer 1" xmlns="http://www.w3.org/2000/svg" viewBox="0 0 16.68 16.31"><path d="M2.44,2.44A8,8,0,0,1,8.34,0a8.33,8.33,0,0,1,8.34,8.32h0a8,8,0,0,1-1.6,4.9,8.48,8.48,0,0,1-4.1,3c-.37,0-.55-.1-.55-.43V13.55A2,2,0,0,0,9.84,12a5,5,0,0,0,2.76-1.06,3.69,3.69,0,0,0,1-3,3.24,3.24,0,0,0-.86-2.27,2.79,2.79,0,0,0-.07-2.23c-.47-.13-1.23.16-2.27.86A7.92,7.92,0,0,0,8.34,4a8.06,8.06,0,0,0-2.07.27A6.74,6.74,0,0,0,5,3.61a2.17,2.17,0,0,0-.8-.18H4a3,3,0,0,0-.08,2.23A3.24,3.24,0,0,0,3,7.93a3.69,3.69,0,0,0,1,3A5.15,5.15,0,0,0,6.77,12a1.68,1.68,0,0,0-.43,1.13A1.67,1.67,0,0,1,4,12.6a1,1,0,0,1-.1-.18,1.64,1.64,0,0,0-1.29-.86H2.45a.41.41,0,0,0-.19.13q-.1.12.33.36a2.09,2.09,0,0,1,.85,1.28l.08.17a1.6,1.6,0,0,0,.25.37,1.27,1.27,0,0,0,.51.41,3.4,3.4,0,0,0,.8.26,2.22,2.22,0,0,0,1.17-.08v1.41c0,.33-.18.48-.55.43a8.48,8.48,0,0,1-4.1-3A8.3,8.3,0,0,1,2.44,2.52Z"/></svg>