<svg id="Layer_1" data-name="Layer 1" xmlns="http://www.w3.org/2000/svg" viewBox="0 0 17.73 19.55"><defs><style>.cls-1{fill:#1351ea;}</style></defs><path class="cls-1" d="M12.71,14.3H5.53V4.86H9.82l2.89,3.05Zm-6.18-1h5.18v-5L9.39,5.85H6.53Z" transform="translate(0)"/><path class="cls-1" d="M1.82,15.11A8.86,8.86,0,0,1,14.5,2.9l-.64.77A7.86,7.86,0,0,0,2.6,14.52Z" transform="translate(0)"/><rect class="cls-1" x="13.33" y="0.07" width="1" height="3.58" transform="translate(0.01 3.76) rotate(-15.49)"/><path class="cls-1" d="M8.87,18.67a8.84,8.84,0,0,1-5.64-2l.64-.77A7.86,7.86,0,0,0,15.12,5.05l.8-.61a8.86,8.86,0,0,1-7,14.23Z" transform="translate(0)"/><rect class="cls-1" x="3.55" y="16.54" width="1" height="2.94" transform="translate(-3.77 1.29) rotate(-12.41)"/><polygon class="cls-1" points="12.2 9.31 9.05 9.31 9.05 5.37 10.05 5.37 10.05 8.31 12.2 8.31 12.2 9.31"/></svg>