<svg id="Layer_1" data-name="Layer 1" xmlns="http://www.w3.org/2000/svg" viewBox="0 0 101.5 17.9"><defs><style>.cls-1{fill:#414751;}.cls-2{fill:#1351ea;}</style></defs><path class="cls-1" d="M36.12,9.87H30.59v5.67H27.17V1.32h9.51V4H30.59V7.28h5.53Z" transform="translate(0.28)"/><path class="cls-1" d="M37.33,10.16A6.26,6.26,0,0,1,38,7.34a4.33,4.33,0,0,1,1.77-1.9,5.31,5.31,0,0,1,2.7-.67,4.86,4.86,0,0,1,3.74,1.47,5.64,5.64,0,0,1,1.37,4v.12a5.52,5.52,0,0,1-1.37,3.92,4.89,4.89,0,0,1-3.72,1.45,5,5,0,0,1-3.62-1.35,5.29,5.29,0,0,1-1.48-3.67Zm3.29.2a4,4,0,0,0,.46,2.15,1.54,1.54,0,0,0,1.36.68q1.76,0,1.8-2.7v-.33c0-1.9-.61-2.85-1.82-2.85s-1.7.82-1.79,2.45Z" transform="translate(0.28)"/><path class="cls-1" d="M55.37,8l-1.08-.08a2,2,0,0,0-2,1v6.69H49V5h3.09l.11,1.36A2.54,2.54,0,0,1,54.51,4.8a2.88,2.88,0,0,1,.92.12Z" transform="translate(0.28)"/><path class="cls-1" d="M60.88,2.34V5h1.74V7.28H60.88v4.84a1.28,1.28,0,0,0,.21.83,1.13,1.13,0,0,0,.85.23,5.66,5.66,0,0,0,.82-.06v2.36a6.1,6.1,0,0,1-1.85.28A3.43,3.43,0,0,1,58.4,15a3.27,3.27,0,0,1-.81-2.43V7.25H56.24V5h1.35V2.34Z" transform="translate(0.28)"/><path class="cls-1" d="M70.3,8l-1.08-.08a2,2,0,0,0-2,1v6.69h-3.3V5H67l.11,1.36A2.54,2.54,0,0,1,69.42,4.8a2.88,2.88,0,0,1,.92.12Z" transform="translate(0.28)"/><path class="cls-1" d="M76.42,15.73a5.41,5.41,0,0,1-3.94-1.45A5,5,0,0,1,71,10.51v-.28a6.56,6.56,0,0,1,.6-2.86,4.45,4.45,0,0,1,1.75-1.92,5.32,5.32,0,0,1,2.73-.68A4.6,4.6,0,0,1,79.6,6.16,5.42,5.42,0,0,1,80.87,10v1.28H74.33a2.21,2.21,0,0,0,2.31,1.9,2.94,2.94,0,0,0,2.44-1.09l1.5,1.78a4.28,4.28,0,0,1-1.74,1.35A5.94,5.94,0,0,1,76.42,15.73ZM76,7.31q-1.44,0-1.71,1.92h3.32V9a1.47,1.47,0,0,0-1.22-1.68A1.7,1.7,0,0,0,76,7.31Z" transform="translate(0.28)"/><path class="cls-1" d="M87.72,12.57a.75.75,0,0,0-.44-.68,6.48,6.48,0,0,0-1.67-.52,7.84,7.84,0,0,1-2-.72,3.52,3.52,0,0,1-1.22-1.08A2.59,2.59,0,0,1,82,8.11a2.9,2.9,0,0,1,1.2-2.39,5,5,0,0,1,3.15-1,5.51,5.51,0,0,1,3.36,1A3,3,0,0,1,91,8.21h-3.3c0-.84-.45-1.27-1.34-1.27a1.31,1.31,0,0,0-.87.29.86.86,0,0,0-.35.72.81.81,0,0,0,.43.71,4.17,4.17,0,0,0,1.37.45,11.73,11.73,0,0,1,1.65.42,3,3,0,0,1,2.39,2.94,2.77,2.77,0,0,1-1.29,2.35,6.39,6.39,0,0,1-5.74.42,4,4,0,0,1-1.66-1.32,3,3,0,0,1-.6-1.77h3.08a1.3,1.3,0,0,0,.48,1.07,2.07,2.07,0,0,0,1.21.33,1.61,1.61,0,0,0,1-.27A.89.89,0,0,0,87.72,12.57Z" transform="translate(0.28)"/><path class="cls-1" d="M98,12.57a.79.79,0,0,0-.44-.68,6.48,6.48,0,0,0-1.67-.52,7.84,7.84,0,0,1-2-.72,3.43,3.43,0,0,1-1.22-1.08,2.59,2.59,0,0,1-.42-1.46,2.9,2.9,0,0,1,1.2-2.39,4.92,4.92,0,0,1,3.14-1,5.51,5.51,0,0,1,3.36,1,3,3,0,0,1,1.27,2.49h-3.3c0-.84-.45-1.27-1.34-1.27a1.38,1.38,0,0,0-.87.29.91.91,0,0,0-.35.72.83.83,0,0,0,.43.71,4.17,4.17,0,0,0,1.37.45,11.87,11.87,0,0,1,1.66.42,3,3,0,0,1,2.38,2.94,2.76,2.76,0,0,1-1.28,2.35,6.41,6.41,0,0,1-5.75.42,4.12,4.12,0,0,1-1.66-1.32,3,3,0,0,1-.6-1.77H95a1.27,1.27,0,0,0,.49,1.07,2,2,0,0,0,1.2.33,1.61,1.61,0,0,0,1-.27A.88.88,0,0,0,98,12.57Z" transform="translate(0.28)"/><path class="cls-2" d="M-.28,0V11.43L8.15,17.9l8.42-6.55V0ZM14.85,10.51,8.14,15.73l-6.7-5.15V1.74H4.71V3.81H6.43V1.74H9.87V3.81h1.71V1.74h3.27Z" transform="translate(0.28)"/></svg>